<?xml version="1.0" encoding="UTF-8"?>
<!DOCTYPE svg PUBLIC "-//W3C//DTD SVG 1.1//EN" "http://www.w3.org/Graphics/SVG/1.1/DTD/svg11.dtd">
<svg version="1.1" xmlns="http://www.w3.org/2000/svg" xmlns:xlink="http://www.w3.org/1999/xlink" x="0" y="0" width="1024" height="1024" viewBox="0, 0, 1024, 1024">
  <g id="logo_Copy">
    <g>
      <path d="M92.584,218.344 L931.395,805.686 C889.787,865.027 835.854,915.341 773.5,952.33 C759.485,960.644 743.327,969.522 728.412,976.074 L1.895,467.362 C8.467,377.529 42.167,292.322 92.584,218.344 z" fill="#8EFDFF" display="none"/>
      <path d="M92.605,218.314 C134.213,158.973 188.146,108.659 250.499,71.67 C264.515,63.356 280.672,54.478 295.587,47.925 L1022.105,556.638 C1015.533,646.471 981.833,731.678 931.416,805.656 L92.605,218.314 z" fill="#8EFDFF" display="none"/>
      <g>
        <g>
          <path d="M511.996,1024 C512.026,1017.172 512.026,15.636 511.996,0 C229.226,0 -0.004,229.23 -0.004,512 C-0.004,794.77 229.226,1024 511.996,1024 z" fill="#FF6E67"/>
        </g>
        <path d="M512.004,1024 C511.974,1017.172 511.974,15.636 512.004,0 C794.774,0 1024.004,229.23 1024.004,512 C1024.004,794.77 794.774,1024 512.004,1024 z" fill="#F2D300"/>
        <path d="M1.897,467.34 L728.432,976.066 C558.598,1052.814 372.288,1036.331 218.329,931.406 C90.39,841.893 9.345,695.765 0.739,539.901 C-0.604,515.583 0.32,491.605 1.897,467.34 z" fill="#FF6E67"/>
        <path d="M295.568,47.934 C465.403,-28.815 651.711,-12.331 805.671,92.594 C933.61,182.107 1014.655,328.234 1023.261,484.099 C1024.604,508.417 1023.68,532.394 1022.103,556.66 L295.568,47.934 z" fill="#F2D300"/>
      </g>
    </g>
    <g>
      <g>
        <path d="M595.774,197.923 L867.487,825.908 L715.07,825.908 L444.329,197.923 L595.774,197.923 z" fill="#9F2DCF"/>
      </g>
      <g>
        <path d="M595.774,197.923 L325.181,825.908 L156.925,825.908 L444.329,197.923 L595.774,197.923 z" fill="#60FDFF"/>
      </g>
      <g>
        <path d="M156.513,826.077 L867.487,197.923 L867.487,347.34 L325.181,825.908 L156.513,826.077 z" fill="#3866FF"/>
      </g>
    </g>
  </g>
</svg>
